<svg width="256" height="256" viewBox="0 0 256 256" fill="none" xmlns="http://www.w3.org/2000/svg">
<rect width="256" height="256" fill="white"/>
<path d="M57.9728 85.2621C61.0547 75.5782 72.4033 69.9498 83.3107 72.6956L203.173 102.869C211.006 104.841 216.784 110.738 217.896 117.897L223.805 155.916C225.414 166.27 216.892 175.699 205.154 176.55L54.1982 187.493C39.9406 188.526 28.8991 176.616 32.7877 164.398L57.9728 85.2621Z" fill="#333333"/>
<path fill-rule="evenodd" clip-rule="evenodd" d="M93.3518 144.886C93.3518 144.886 90.9218 147.471 88.9474 148.003C89.0087 147.573 89.07 147.124 89.1332 146.66V146.66C89.4615 144.254 89.8416 141.468 90.5421 139.11C91.3015 136.221 94.6427 127.86 94.6427 127.86C94.677 127.769 94.7147 127.674 94.7532 127.577C94.971 127.029 95.216 126.412 95.0224 125.96C93.3518 122.463 89.1752 121.779 89.1752 121.779C88.7196 121.779 88.188 122.767 87.7324 124.668L84.0873 142.53C84.0477 142.808 83.9461 143.251 83.804 143.87L83.804 143.87L83.8039 143.87C83.6737 144.438 83.5095 145.154 83.328 146.026C83.1873 146.702 83.057 147.274 82.9488 147.749L82.9486 147.749L82.9486 147.75C82.7648 148.556 82.6445 149.084 82.6445 149.371C82.6445 149.827 83.0242 150.587 83.7076 151.271C83.7076 151.271 85.9098 153.475 88.8714 153.551C88.8714 153.551 93.3518 153.247 95.478 151.119C96.3134 150.283 96.8449 149.751 96.8449 149.067C96.9209 149.067 97.5284 145.798 93.3518 144.886ZM74.9747 124.436C73.3041 124.132 70.95 124.892 69.4312 126.184C67.9125 127.476 66.9253 128.616 66.014 130.365C65.1028 132.113 65.1028 134.165 65.1028 135.381C65.1028 137.966 68.1403 141.614 74.2153 146.251C72.5447 147.847 69.8869 148.607 68.2922 148.987C68.1108 148.382 68.122 147.054 68.1341 145.617C68.1371 145.249 68.1403 144.874 68.1403 144.502C68.1403 144.502 67.6087 141.614 63.2803 143.134C60.6224 144.046 61.4577 148.227 61.4577 148.227C61.4577 148.227 62.369 154.08 70.2666 153.548C74.8229 153.244 79.6069 149.747 79.6069 149.747C80.822 148.607 81.5813 147.467 81.4295 146.327C81.1257 144.579 73.38 138.726 73.38 138.726C72.5691 137.846 72.2994 136.907 72.0893 136.175C72.0633 136.085 72.0382 135.997 72.0131 135.913C71.809 135.096 72.2755 133.303 72.484 132.501C72.5082 132.408 72.5289 132.328 72.5447 132.265C73.456 129.301 75.3544 129.909 75.3544 129.909C76.1897 130.213 75.81 131.733 75.81 131.733C75.6582 132.569 75.5063 133.633 75.5063 135.001L75.7178 135.083L75.7178 135.083L75.7178 135.083L75.7178 135.083C76.6244 135.434 77.4702 135.761 78.316 135.761C79.531 135.761 80.6701 135.457 81.5054 134.849C82.3407 134.241 82.7204 133.253 82.7204 132.189C82.6997 132.199 82.6718 132.083 82.6212 131.872C82.3012 130.54 81.0718 125.42 74.9747 124.436ZM117.804 147.545C119.474 146.709 120.917 145.797 122.056 144.885C123.271 145.265 124.107 145.873 124.79 146.481C125.398 147.165 125.701 148.001 125.701 148.913C125.701 149.598 125.322 150.282 124.335 150.966C120.614 153.626 117.728 153.398 117.728 153.398C113.248 152.79 112.564 149.598 112.564 149.598C112.564 149.538 112.561 149.478 112.558 149.417C112.546 149.168 112.533 148.9 112.716 148.533L113.855 145.721L113.627 145.797C112.511 147.68 111.121 149.061 109.916 150.259L109.916 150.259L109.915 150.26C109.564 150.609 109.228 150.943 108.919 151.27C107.628 152.714 106.337 153.702 105.046 153.474C98.9712 152.486 98.8193 146.633 98.8193 146.633C98.8193 144.201 99.1231 141.617 100.338 139.184C105.274 128.999 110.742 130.063 110.742 130.063C111.577 130.063 112.412 130.443 113.248 131.203C114.083 131.963 114.614 132.875 114.842 133.635C114.918 133.103 115.07 132.115 115.298 131.659C115.602 131.203 116.057 130.899 116.361 130.899C116.361 130.899 119.323 131.355 120.993 133.94C121.449 134.7 121.753 135.232 121.753 135.612C121.753 135.612 120.462 139.944 119.93 141.388C119.738 141.965 119.398 142.933 119.04 143.951L119.04 143.951L119.04 143.951L119.039 143.953C118.548 145.35 118.023 146.842 117.804 147.545ZM105.274 147.773C107.476 146.405 109.451 144.885 111.121 142.909C112.716 140.932 113.779 138.5 114.463 136.068C113.703 135.764 113.02 135.612 112.336 135.612C111.045 135.612 109.603 135.992 108.615 137.132C107.552 138.272 106.869 139.868 106.261 141.693C105.736 143.271 105.551 145.076 105.363 146.912L105.363 146.912L105.363 146.912L105.363 146.912C105.334 147.199 105.305 147.486 105.274 147.773ZM142.18 131.658L137.624 132.418C138.155 131.278 138.535 130.442 138.763 129.758C138.805 129.631 138.85 129.507 138.893 129.385C139.087 128.849 139.266 128.353 139.142 127.857C138.687 125.805 136.029 124.133 136.029 124.133C135.118 123.677 134.282 123.297 133.751 123.297C131.7 123.145 131.852 132.722 131.852 132.722L131.852 132.722C130.409 132.646 128.967 132.57 127.979 132.494C127.979 132.494 126.764 133.102 126.764 135.306C126.764 137.511 128.055 137.891 128.207 137.891L130.941 137.739L130.106 141.539L128.891 147.088C128.587 148.38 128.435 149.14 128.511 149.52C128.815 154.005 134.434 153.549 134.434 153.549C140.357 152.94 142.408 149.064 142.408 149.064C142.408 148.152 142.104 147.316 141.496 146.632C140.889 145.872 140.054 145.34 138.839 144.883C137.775 145.796 135.953 147.164 134.206 148.076C134.428 146.193 135.012 143.624 135.665 140.75L135.665 140.75L135.666 140.749C135.909 139.679 136.162 138.568 136.409 137.435L142.56 137.206C142.56 137.206 143.926 135.99 143.851 134.09C143.699 132.114 142.18 131.658 142.18 131.658ZM158.279 143.061C156.38 143.897 154.254 144.429 151.9 144.809V146.253C151.9 146.589 151.888 146.827 151.878 147.016C151.864 147.297 151.855 147.47 151.9 147.698C158.886 148.458 160.557 144.505 160.557 144.505C160.557 144.505 163.974 144.277 163.67 148.61C163.367 152.258 160.101 152.486 160.101 152.486C160.101 152.486 156.456 153.17 154.406 153.17C152.356 153.17 150.078 152.41 150.078 152.41C145.977 150.814 145.445 145.493 145.445 145.493C145.445 143.517 145.749 141.313 146.66 138.956C146.66 138.956 150.609 130.595 156.228 130.443C157.671 130.443 159.038 130.747 160.253 131.431C161.468 132.04 162.455 132.876 163.139 133.864C163.822 134.852 164.202 135.84 164.202 136.752C164.202 137.892 163.67 139.032 162.607 140.173C161.62 141.237 160.101 142.225 158.279 143.061ZM155.933 136.059C155.109 136.585 154.275 137.118 153.723 137.892C153.039 138.956 152.508 140.477 152.583 141.693C152.667 141.662 152.75 141.632 152.834 141.602C154.427 141.023 156.058 140.431 157.14 139.565C158.203 138.652 158.431 137.74 158.431 137.056C158.431 136.22 157.899 135.764 156.836 135.46C156.547 135.667 156.24 135.863 155.933 136.059Z" fill="white"/>
<path d="M196.627 129.53L193.97 129.758C194.122 129.15 194.273 128.314 194.273 128.01C194.273 128.01 194.349 127.706 194.273 127.63C193.134 124.893 189.489 124.361 189.489 124.361C188.958 124.361 188.502 124.817 188.198 125.653C187.895 126.49 187.439 128.238 186.983 130.29L182.655 130.67C182.959 129.606 183.186 128.466 183.186 128.01C182.959 125.197 178.402 124.361 178.402 124.361C177.871 124.361 177.415 124.817 177.035 125.806C176.732 126.794 176.2 128.77 175.669 131.202L169.366 131.354C168.53 132.114 168.151 133.026 168.151 134.091C168.151 134.091 168.075 136.523 169.897 137.055L174.605 136.751L172.859 143.136L167.315 143.212C166.48 143.972 166.1 144.884 166.1 145.948C166.1 145.948 166.024 148.152 167.847 148.608L170.733 148.684C170.505 149.597 170.353 150.357 170.353 150.661C170.353 150.661 170.657 153.549 175.289 153.777C175.669 153.777 176.048 153.321 176.352 152.485C176.732 151.573 177.111 150.129 177.567 148.304L182.123 147.772C181.744 149.064 181.288 150.205 181.288 150.585C181.288 150.585 181.592 153.473 186.376 153.701C186.756 153.701 187.135 153.245 187.515 152.257C187.895 151.269 188.35 149.369 188.958 147.24L194.501 147.164C195.868 146.784 196.172 144.276 196.172 144.276C196.172 141.464 194.577 141.387 194.577 141.387L190.249 141.844L192.071 135.459L196.703 135.231C197.918 134.547 198.222 132.342 198.222 132.342C197.994 129.682 196.627 129.53 196.627 129.53ZM183.946 142.604L178.706 143.06L180.68 135.991L185.92 135.611L183.946 142.604Z" fill="#00FF66"/>
</svg>
