<svg width="12" height="12" viewBox="0 0 12 12" fill="none" xmlns="http://www.w3.org/2000/svg">
<path d="M12 6C12 5.16293 11.4849 4.43707 10.718 4.04488C10.9873 3.23122 10.8351 2.34732 10.2439 1.7561C9.65268 1.16488 8.76878 1.01268 7.95512 1.28195C7.56878 0.515122 6.83707 0 6 0C5.16293 0 4.43707 0.515122 4.05073 1.28195C3.23122 1.01268 2.34732 1.16488 1.7561 1.7561C1.16488 2.34732 1.01854 3.23122 1.2878 4.04488C0.520976 4.43707 0 5.16293 0 6C0 6.83707 0.520976 7.56293 1.2878 7.95512C1.01854 8.76878 1.16488 9.65268 1.7561 10.2439C2.34732 10.8351 3.23122 10.9815 4.04488 10.718C4.43707 11.4849 5.16293 12 6 12C6.83707 12 7.56878 11.4849 7.95512 10.718C8.76878 10.9815 9.65268 10.8351 10.2439 10.2439C10.8351 9.65268 10.9873 8.76878 10.718 7.95512C11.4849 7.56293 12 6.83707 12 6ZM5.14537 8.45854L2.9561 6.26927L3.78146 5.43805L5.10439 6.76098L7.91415 3.69951L8.77463 4.49561L5.14537 8.45854Z" fill="#1D9BF0"/>
</svg>
