<svg width="24" height="24" viewBox="0 0 24 24" fill="none" xmlns="http://www.w3.org/2000/svg">
<path d="M13.4751 10.7C13.0251 10.7 12.6501 11.1 12.6501 11.6C12.6501 12.1 13.0251 12.5 13.4751 12.5C13.9251 12.5 14.3001 12.1 14.3001 11.6C14.3001 11.1 13.9251 10.7 13.4751 10.7ZM10.5501 10.7C10.1001 10.7 9.7251 11.1 9.7251 11.6C9.7251 12.1 10.1001 12.5 10.5501 12.5C11.0001 12.5 11.3751 12.1 11.3751 11.6C11.3751 11.1 11.0001 10.7 10.5501 10.7Z" fill="black" fill-opacity="0.5"/>
<path d="M17.35 4H6.65C5.725 4 5 4.725 5 5.65V16.475C5 17.375 5.725 18.125 6.65 18.125H15.725L15.3 16.65L16.325 17.6L17.3 18.5L19 20V5.65C19 4.725 18.275 4 17.35 4ZM14.275 14.45C14.275 14.45 13.975 14.1 13.75 13.8C14.8 13.5 15.2 12.85 15.2 12.85C14.875 13.075 14.55 13.225 14.275 13.325C13.875 13.5 13.5 13.6 13.125 13.675C12.35 13.825 11.65 13.775 11.05 13.675C10.6 13.575 10.2 13.45 9.875 13.325C9.7 13.25 9.5 13.175 9.3 13.05C9.275 13.025 9.25 13.025 9.225 13C9.2 13 9.2 12.975 9.2 12.975C9.05 12.9 8.975 12.85 8.975 12.85C8.975 12.85 9.35 13.5 10.375 13.8C10.125 14.1 9.85 14.475 9.85 14.475C8.075 14.425 7.4 13.25 7.4 13.25C7.4 10.675 8.55 8.575 8.55 8.575C9.7 7.7 10.8 7.725 10.8 7.725L10.875 7.825C9.425 8.25 8.75 8.875 8.75 8.875C8.75 8.875 8.925 8.775 9.225 8.65C10.075 8.275 10.75 8.175 11.05 8.15C11.1 8.15 11.15 8.125 11.175 8.125C11.675 8.05 12.225 8.05 12.8 8.1C13.55 8.2 14.375 8.4 15.2 8.875C15.2 8.875 14.575 8.275 13.2 7.85L13.3 7.725C13.3 7.725 14.4 7.7 15.55 8.575C15.55 8.575 16.7 10.675 16.7 13.25C16.725 13.225 16.05 14.4 14.275 14.45Z" fill="black" fill-opacity="0.5"/>
</svg>
