<svg width="24" height="24" viewBox="0 0 24 24" fill="none" xmlns="http://www.w3.org/2000/svg">
<path d="M11.7185 3.90234C7.17776 3.90051 3.5 7.57643 3.5 12.1135C3.5 15.7013 5.80067 18.7511 9.0047 19.8711C9.43619 19.9795 9.37009 19.6728 9.37009 19.4635V18.0405C6.87847 18.3325 6.77748 16.6836 6.6104 16.4082C6.27255 15.8317 5.47384 15.6848 5.71253 15.4093C6.27989 15.1174 6.85827 15.4828 7.52846 16.4725C8.0132 17.1904 8.9588 17.0692 9.43803 16.9499C9.54269 16.5184 9.7667 16.1328 10.0752 15.8335C7.49357 15.3708 6.4176 13.7954 6.4176 11.9225C6.4176 11.0137 6.71689 10.1782 7.30445 9.50436C6.92988 8.39351 7.33934 7.44239 7.39442 7.30101C8.46121 7.20553 9.57023 8.06484 9.65653 8.13278C10.2625 7.96936 10.9547 7.88306 11.7295 7.88306C12.508 7.88306 13.2021 7.97304 13.8135 8.13829C14.021 7.98038 15.0492 7.24226 16.0407 7.33223C16.094 7.47361 16.4943 8.40269 16.1417 9.49886C16.7366 10.1746 17.0396 11.0173 17.0396 11.9281C17.0396 13.8046 15.9563 15.3818 13.3673 15.8372C13.7988 16.2631 14.0669 16.8544 14.0669 17.508V19.5737C14.0816 19.7389 14.0669 19.9023 14.3423 19.9023C17.5941 18.8062 19.9352 15.7343 19.9352 12.1153C19.9352 7.57643 16.2556 3.90234 11.7185 3.90234V3.90234Z" fill="#808080"/>
</svg>
