<svg width="21" height="30" viewBox="0 0 21 30" fill="none" xmlns="http://www.w3.org/2000/svg">
<path fill-rule="evenodd" clip-rule="evenodd" d="M17.3366 11.2375L10.113 0L2.9761 11.2375L10.113 15.4135L17.3366 11.2375ZM10.113 2.89999L5.15765 10.701L10.113 13.601L15.0684 10.6865L10.113 2.89999ZM1.82033 13.05L10.113 17.893L18.4057 13.05L18.6368 13.398C19.6127 14.9321 20.1597 16.7013 20.2203 18.5204C20.2811 20.3395 19.8533 22.1415 18.9817 23.7377C18.1103 25.3339 16.8272 26.6655 15.2669 27.5931C13.7066 28.5207 11.9265 29.0101 10.113 29.0101C8.29955 29.0101 6.5194 28.5207 4.9591 27.5931C3.3988 26.6655 2.11571 25.3339 1.24425 23.7377C0.372764 22.1415 -0.0550319 20.3395 0.00566759 18.5204C0.0663365 16.7013 0.613273 14.9321 1.58919 13.398L1.82033 13.05Z" fill="#00A3FF"/>
</svg>
