<svg width="124" height="29" viewBox="0 0 124 29" fill="none" xmlns="http://www.w3.org/2000/svg">
<g clip-path="url(#clip0_213_187)">
<path d="M39.2529 8.20703H42.3735V21.6485H50.045V24.65H39.2529V8.20703Z" fill="#273852"/>
<path d="M63.6831 8.20703H66.8037V24.65H63.6831V8.20703Z" fill="#273852"/>
<path d="M81.7422 8.20706H86.9432C88.0064 8.20416 89.0571 8.43687 90.0204 8.88856C91.959 9.73957 93.5066 11.2929 94.3546 13.2386C94.7831 14.2369 95.0041 15.3125 95.0041 16.3996C95.0041 17.4866 94.7831 18.5622 94.3546 19.5606C93.9303 20.531 93.333 21.4156 92.592 22.1706C91.8443 22.9139 90.9743 23.5222 90.0204 23.9686C89.0522 24.402 88.0033 24.6244 86.9432 24.6211H81.7422V8.20706ZM86.9432 21.6486C87.5829 21.6471 88.2145 21.5035 88.7924 21.2281C89.3875 20.9598 89.9268 20.581 90.3816 20.1116C90.8465 19.6365 91.2145 19.075 91.4651 18.4586C91.7487 17.82 91.8916 17.1276 91.8841 16.4286C91.8918 15.7342 91.7488 15.0464 91.4651 14.4131C90.9721 13.1625 90.0136 12.1537 88.7924 11.6001C88.2145 11.3246 87.5829 11.181 86.9432 11.1796H84.8628V21.6196L86.9432 21.6486Z" fill="#273852"/>
<path d="M116.068 24.7804C115.015 24.7866 113.973 24.5743 113.005 24.1569C112.057 23.7291 111.199 23.1238 110.477 22.3734C109.756 21.5952 109.174 20.6974 108.758 19.7199C108.335 18.6751 108.124 17.5561 108.137 16.4284C108.126 15.3104 108.338 14.2014 108.758 13.1659C109.167 12.1803 109.749 11.2766 110.477 10.4979C111.194 9.73703 112.053 9.12596 113.005 8.69994C113.969 8.26644 115.013 8.044 116.068 8.04744C117.119 8.04247 118.159 8.26503 119.117 8.69994C120.067 9.11037 120.922 9.71252 121.63 10.4689C122.373 11.2362 122.957 12.1428 123.35 13.1369C123.779 14.1758 124 15.2893 124 16.4139C124 17.5385 123.779 18.6521 123.35 19.6909C122.95 20.677 122.366 21.5776 121.63 22.3444C120.919 23.1009 120.064 23.7073 119.117 24.1279C118.157 24.5565 117.119 24.7788 116.068 24.7804ZM116.068 21.7789C116.705 21.7793 117.335 21.646 117.918 21.3874C118.499 21.1383 119.021 20.7675 119.449 20.2999C119.894 19.8018 120.247 19.2271 120.489 18.6034C120.755 17.9148 120.887 17.1815 120.879 16.4429C120.888 15.7091 120.755 14.9805 120.489 14.2969C120.247 13.6733 119.894 13.0986 119.449 12.6004C119.023 12.1234 118.501 11.7427 117.918 11.4839C117.33 11.226 116.695 11.0929 116.054 11.0929C115.412 11.0929 114.778 11.226 114.19 11.4839C113.64 11.7575 113.149 12.1368 112.745 12.6004C112.3 13.0986 111.948 13.6733 111.705 14.2969C111.416 14.971 111.259 15.6947 111.243 16.4284C111.235 17.167 111.367 17.9003 111.633 18.5889C111.878 19.2188 112.236 19.7986 112.688 20.2999C113.116 20.7687 113.639 21.1404 114.222 21.3904C114.805 21.6405 115.435 21.763 116.068 21.7499V21.7789Z" fill="#273852"/>
<path fill-rule="evenodd" clip-rule="evenodd" d="M10.113 0L17.3366 11.2375L10.113 15.4135L2.97607 11.2375L10.113 0ZM5.1576 10.701L10.113 2.9L15.0683 10.6865L10.113 13.601L5.1576 10.701Z" fill="#00A3FF"/>
<path d="M10.113 17.893L1.82034 13.05L1.58919 13.398C0.613288 14.9321 0.0663514 16.7014 0.00566524 18.5205C-0.0550209 20.3396 0.372776 22.1416 1.24425 23.7378C2.11572 25.3339 3.39881 26.6655 4.95911 27.5931C6.51942 28.5207 8.29953 29.0101 10.113 29.0101C11.9265 29.0101 13.7066 28.5207 15.2669 27.5931C16.8272 26.6655 18.1103 25.3339 18.9818 23.7378C19.8533 22.1416 20.281 20.3396 20.2204 18.5205C20.1597 16.7014 19.6127 14.9321 18.6368 13.398L18.4057 13.05L10.113 17.893Z" fill="#00A3FF"/>
</g>
<defs>
<clipPath id="clip0_213_187">
<rect width="124" height="29" fill="white"/>
</clipPath>
</defs>
</svg>
