<svg width="216" height="130" viewBox="0 0 216 130" fill="none" xmlns="http://www.w3.org/2000/svg">
<path d="M29.2194 14.9199C32.6865 4.02549 45.4537 -2.30647 57.7246 0.78252L192.57 34.7276C201.382 36.946 207.882 43.5803 209.133 51.634L215.78 94.4052C217.591 106.054 208.003 116.661 194.798 117.618L24.973 129.929C8.93315 131.092 -3.48852 117.693 0.886138 103.947L29.2194 14.9199Z" fill="#333333"/>
<path fill-rule="evenodd" clip-rule="evenodd" d="M69.0207 81.9953C69.0207 81.9953 66.2869 84.9027 64.0658 85.5013C64.1347 85.018 64.2037 84.5125 64.2748 83.9912V83.9912L64.2748 83.9911C64.6442 81.2836 65.0718 78.1495 65.8598 75.4965C66.7141 72.2471 70.473 62.8409 70.473 62.8409C70.5116 62.7381 70.5539 62.6314 70.5973 62.5223L70.5973 62.5221C70.8423 61.9054 71.1179 61.2117 70.9002 60.7031C69.0207 56.7696 64.3221 56 64.3221 56C63.8095 56 63.2115 57.1116 62.6989 59.2494L58.5982 79.3445C58.5536 79.6568 58.4393 80.1553 58.2795 80.8522L58.2794 80.8523L58.2794 80.8524L58.2794 80.8524L58.2794 80.8527C58.1329 81.4914 57.9482 82.2967 57.7439 83.278C57.5856 84.0387 57.439 84.6819 57.3172 85.2164L57.3172 85.2165C57.1104 86.1238 56.975 86.7176 56.975 87.0405C56.975 87.5535 57.4022 88.4086 58.1711 89.1782C58.1711 89.1782 60.6485 91.658 63.9803 91.7435C63.9803 91.7435 69.0207 91.4015 71.4128 89.0072C72.3525 88.0666 72.9505 87.468 72.9505 86.6984C73.0359 86.6984 73.7194 83.0214 69.0207 81.9953ZM48.3466 58.9928C46.4671 58.6508 43.8188 59.5059 42.1102 60.9596C40.4016 62.4133 39.291 63.6959 38.2658 65.6627C37.2406 67.6294 37.2406 69.9382 37.2406 71.3064C37.2406 74.2138 40.6579 78.3183 47.4923 83.5345C45.6128 85.3302 42.6228 86.1853 40.8287 86.6129C40.6247 85.932 40.6372 84.4381 40.6508 82.8216V82.8215V82.8215V82.8214C40.6543 82.4077 40.6579 81.9859 40.6579 81.5677C40.6579 81.5677 40.0598 78.3183 35.1903 80.0285C32.2003 81.0546 33.14 85.7577 33.14 85.7577C33.14 85.7577 34.1652 92.3421 43.0499 91.7435C48.1757 91.4015 53.5578 87.468 53.5578 87.468C54.9247 86.1853 55.779 84.9026 55.6082 83.62C55.2664 81.6532 46.5526 75.0689 46.5526 75.0689C45.6403 74.0797 45.3369 73.0227 45.1005 72.1994C45.0713 72.0975 45.043 71.9992 45.0148 71.905C44.7852 70.9856 45.3099 68.9679 45.5445 68.066L45.5445 68.0659C45.5717 67.9612 45.5951 67.8716 45.6128 67.8005C46.638 64.4655 48.7737 65.1496 48.7737 65.1496C49.7135 65.4917 49.2863 67.2019 49.2863 67.2019C49.1155 68.1425 48.9446 69.3397 48.9446 70.8788C49.0243 70.9095 49.1036 70.9402 49.1825 70.9708C50.2024 71.3656 51.154 71.734 52.1055 71.734C53.4724 71.734 54.7539 71.3919 55.6936 70.7078C56.6333 70.0237 57.0605 68.9121 57.0605 67.7149C57.0371 67.7266 57.0058 67.5962 56.9489 67.3591L56.9489 67.359L56.9488 67.3589L56.9488 67.3589C56.5889 65.8602 55.2057 60.1002 48.3466 58.9928ZM96.5293 84.9884C98.4087 84.0478 100.032 83.0217 101.313 81.9955C102.68 82.4231 103.62 83.1072 104.389 83.7913C105.072 84.5609 105.414 85.5015 105.414 86.5276C105.414 87.2972 104.987 88.0668 103.876 88.8364C99.6902 91.8293 96.4438 91.5728 96.4438 91.5728C91.4035 90.8887 90.6346 87.2972 90.6346 87.2972C90.6346 87.2302 90.6313 87.1631 90.628 87.0948L90.6279 87.0946C90.6142 86.8144 90.5994 86.5125 90.8054 86.1001L92.0869 82.9362L91.8306 83.0217C90.5743 85.1395 89.011 86.6939 87.6556 88.0416L87.6555 88.0417C87.2596 88.4353 86.8815 88.8112 86.5339 89.1785C85.0816 90.8032 83.6293 91.9148 82.177 91.6583C75.3425 90.5466 75.1717 83.9623 75.1717 83.9623C75.1717 81.2259 75.5134 78.3186 76.8803 75.5822C82.4333 64.1238 88.5842 65.3209 88.5842 65.3209C89.524 65.3209 90.4637 65.7485 91.4035 66.6036C92.3432 67.4587 92.9412 68.4848 93.1975 69.3399C93.2829 68.7414 93.4538 67.6297 93.7101 67.1166C94.0518 66.6036 94.5644 66.2615 94.9061 66.2615C94.9061 66.2615 98.2379 66.7746 100.117 69.682C100.63 70.5371 100.972 71.1357 100.972 71.5632C100.972 71.5632 99.5193 76.4373 98.9213 78.062C98.7053 78.7107 98.3224 79.7997 97.9197 80.9452C97.3667 82.5179 96.7764 84.1968 96.5293 84.9884ZM82.4333 85.245C84.9107 83.7058 87.1319 81.9955 89.0114 79.7723C90.8054 77.549 92.0015 74.8126 92.7703 72.0763C91.916 71.7342 91.1472 71.5632 90.3783 71.5632C88.926 71.5632 87.3028 71.9908 86.1922 73.2734C84.9962 74.5561 84.2273 76.3518 83.5439 78.4041C82.9527 80.1794 82.745 82.2106 82.5338 84.2764C82.5009 84.5987 82.4679 84.9218 82.4333 85.245ZM123.952 67.1162L118.827 67.9713C119.425 66.6887 119.852 65.748 120.108 64.9784C120.155 64.8362 120.206 64.6969 120.255 64.5599L120.255 64.5597C120.473 63.9558 120.674 63.3983 120.535 62.8407C120.023 60.5319 117.033 58.6506 117.033 58.6506C116.007 58.1376 115.068 57.71 114.47 57.71C112.163 57.539 112.334 68.3134 112.334 68.3134L112.334 68.3134C110.711 68.2279 109.088 68.1423 107.977 68.0568C107.977 68.0568 106.61 68.7409 106.61 71.2207C106.61 73.7006 108.062 74.1281 108.233 74.1281L111.309 73.9571L110.369 78.2326L109.002 84.4749C108.66 85.9286 108.49 86.7837 108.575 87.2113C108.917 92.2564 115.239 91.7434 115.239 91.7434C121.902 91.0593 124.209 86.6982 124.209 86.6982C124.209 85.6721 123.867 84.7315 123.184 83.9619C122.5 83.1068 121.56 82.5082 120.193 81.9951C118.997 83.0212 116.947 84.5604 114.982 85.5866C115.231 83.4681 115.888 80.5777 116.623 77.3455L116.624 77.3438C116.897 76.1409 117.182 74.8905 117.46 73.615L124.38 73.3585C124.38 73.3585 125.917 71.9903 125.832 69.8526C125.661 67.6293 123.952 67.1162 123.952 67.1162ZM142.064 79.9429C139.928 80.8835 137.536 81.482 134.887 81.9096V83.5343C134.887 83.9123 134.874 84.1798 134.863 84.3923C134.846 84.7087 134.836 84.9033 134.887 85.159C142.747 86.0141 144.627 81.5676 144.627 81.5676C144.627 81.5676 148.471 81.311 148.129 86.1852C147.787 90.2897 144.114 90.5462 144.114 90.5462C144.114 90.5462 140.013 91.3158 137.707 91.3158C135.4 91.3158 132.837 90.4607 132.837 90.4607C128.224 88.665 127.626 82.6792 127.626 82.6792C127.626 80.4559 127.968 77.9761 128.993 75.3253C128.993 75.3253 133.435 65.9191 139.757 65.748C141.38 65.748 142.918 66.0901 144.285 66.8597C145.652 67.5438 146.762 68.4844 147.531 69.596C148.3 70.7077 148.727 71.8193 148.727 72.8455C148.727 74.1281 148.129 75.4108 146.933 76.6934C145.823 77.8906 144.114 79.0022 142.064 79.9429ZM139.424 72.0658C138.498 72.6573 137.56 73.2568 136.938 74.1281C136.169 75.3253 135.571 77.0355 135.656 78.4037C135.75 78.3695 135.844 78.3353 135.938 78.3011C137.73 77.6504 139.565 76.9842 140.782 76.0094C141.978 74.9832 142.234 73.9571 142.234 73.1875C142.234 72.2469 141.636 71.7338 140.44 71.3918C140.115 71.6245 139.77 71.8446 139.424 72.0658Z" fill="white"/>
<path d="M185.206 64.722L182.216 64.9785C182.387 64.2944 182.558 63.3538 182.558 63.0117C182.558 63.0117 182.643 62.6697 182.558 62.5842C181.276 59.5058 177.176 58.9072 177.176 58.9072C176.578 58.9072 176.065 59.4203 175.723 60.3609C175.381 61.3015 174.869 63.2683 174.356 65.5771L169.487 66.0046C169.829 64.8075 170.085 63.5248 170.085 63.0117C169.829 59.8478 164.703 58.9072 164.703 58.9072C164.105 58.9072 163.592 59.4203 163.165 60.5319C162.823 61.6436 162.225 63.8669 161.627 66.6032L154.536 66.7742C153.597 67.6293 153.17 68.6555 153.17 69.8526C153.17 69.8526 153.084 72.589 155.134 73.1875L160.431 72.8455L158.466 80.0284L152.23 80.1139C151.29 80.969 150.863 81.9952 150.863 83.1923C150.863 83.1923 150.778 85.6721 152.828 86.1852L156.074 86.2707C155.818 87.2968 155.647 88.152 155.647 88.494C155.647 88.494 155.989 91.7434 161.2 91.9999C161.627 91.9999 162.054 91.4869 162.396 90.5463C162.823 89.5201 163.25 87.8954 163.763 85.8432L168.889 85.2446C168.462 86.6983 167.949 87.9809 167.949 88.4085C167.949 88.4085 168.291 91.6579 173.673 91.9144C174.1 91.9144 174.527 91.4014 174.954 90.2897C175.381 89.1781 175.894 87.0403 176.578 84.646L182.814 84.5605C184.352 84.1329 184.693 81.3111 184.693 81.3111C184.693 78.1472 182.899 78.0617 182.899 78.0617L178.03 78.5747L180.08 71.3918L185.291 71.1353C186.658 70.3657 187 67.8859 187 67.8859C186.744 64.893 185.206 64.722 185.206 64.722ZM170.939 79.4298L165.044 79.9429L167.266 71.9904L173.16 71.5628L170.939 79.4298Z" fill="#00FF66"/>
</svg>
