<svg width="36" height="36" viewBox="0 0 36 36" fill="none" xmlns="http://www.w3.org/2000/svg">
<circle cx="18" cy="18" r="18" fill="#E9F1F5"/>
<path d="M26 13.544C25.4116 13.7979 24.7713 13.9805 24.1118 14.0517C24.7925 13.646 25.3097 13.0056 25.5539 12.2442C24.9251 12.6192 24.2137 12.8941 23.4734 13.0364C22.8735 12.3961 22.0216 12 21.0775 12C19.2604 12 17.7991 13.4729 17.7991 15.2804C17.7991 15.5342 17.8298 15.788 17.8798 16.0322C15.159 15.8899 12.7324 14.5901 11.1191 12.5999C10.8345 13.0883 10.673 13.646 10.673 14.2555C10.673 15.3938 11.2518 16.3975 12.1344 16.9879C11.596 16.9667 11.0883 16.8148 10.6518 16.5706V16.611C10.6518 18.205 11.7786 19.526 13.2804 19.8298C13.0054 19.901 12.7112 19.9414 12.417 19.9414C12.2036 19.9414 12.0017 19.9202 11.7979 19.8914C12.2132 21.1912 13.4227 22.1353 14.8629 22.1661C13.7361 23.0487 12.3247 23.5678 10.7922 23.5678C10.5172 23.5678 10.2634 23.5582 10 23.5275C11.4537 24.46 13.1785 24.9984 15.0359 24.9984C21.066 24.9984 24.3656 20.0029 24.3656 15.6669C24.3656 15.5246 24.3656 15.3823 24.356 15.24C24.9944 14.7727 25.5539 14.194 26 13.544Z" fill="#737980"/>
</svg>
