<svg width="24" height="24" viewBox="0 0 24 24" fill="none" xmlns="http://www.w3.org/2000/svg">
<path d="M13.2856 12.6429C13.2856 12.8134 13.3534 12.9769 13.4739 13.0974C13.5945 13.218 13.758 13.2857 13.9285 13.2857C14.099 13.2857 14.2625 13.218 14.3831 13.0974C14.5036 12.9769 14.5714 12.8134 14.5714 12.6429C14.5714 12.4724 14.5036 12.3088 14.3831 12.1883C14.2625 12.0677 14.099 12 13.9285 12C13.758 12 13.5945 12.0677 13.4739 12.1883C13.3534 12.3088 13.2856 12.4724 13.2856 12.6429Z" fill="black" fill-opacity="0.5"/>
<path d="M15.8572 10.7142C15.6019 10.7142 15.3786 10.8642 15.2769 11.0821C15.6126 11.3374 15.8911 11.6303 16.0965 11.9535C16.3322 11.8589 16.5001 11.6267 16.5001 11.3571C16.5001 11.0017 16.2126 10.7142 15.8572 10.7142Z" fill="black" fill-opacity="0.5"/>
<path d="M12 4C7.58214 4 4 7.58214 4 12C4 16.4179 7.58214 20 12 20C16.4179 20 20 16.4179 20 12C20 7.58214 16.4179 4 12 4ZM16.375 12.5339C16.4571 12.775 16.5 13.0268 16.5 13.2857C16.5 15.0607 14.4857 16.5 12 16.5C9.51429 16.5 7.5 15.0607 7.5 13.2857C7.5 13.0268 7.54286 12.775 7.625 12.5339C7.17321 12.3339 6.85714 11.8839 6.85714 11.3571C6.85714 10.6464 7.43214 10.0714 8.14286 10.0714C8.62679 10.0714 9.04643 10.3375 9.26607 10.7321C9.9125 10.3786 10.6982 10.1464 11.5536 10.0875L12.5964 7.74643C12.6732 7.57143 12.8679 7.48214 13.0518 7.53571L14.6875 8.00893C14.85 7.70714 15.1696 7.50179 15.5375 7.50179C16.0696 7.50179 16.5018 7.93393 16.5018 8.46607C16.5018 8.99821 16.0696 9.43036 15.5375 9.43036C15.1179 9.43036 14.7607 9.16071 14.6286 8.78571L13.1607 8.3625L12.3929 10.0857C13.2696 10.1393 14.075 10.3732 14.7357 10.7339C14.9554 10.3393 15.375 10.0732 15.8589 10.0732C16.5696 10.0732 17.1446 10.6482 17.1446 11.3589C17.1429 11.8821 16.8268 12.3339 16.375 12.5339Z" fill="black" fill-opacity="0.5"/>
<path d="M13.3161 14.016C13.05 14.2249 12.525 14.4499 12 14.4499C11.475 14.4499 10.9482 14.2249 10.6839 14.016C10.5179 13.8857 10.2786 13.9142 10.1482 14.0803C10.0179 14.2464 10.0464 14.4857 10.2125 14.616C10.6714 14.9803 11.3732 15.2142 12 15.2142C12.6268 15.2142 13.3286 14.9803 13.7893 14.616C13.9554 14.4857 13.9839 14.2446 13.8536 14.0803C13.7232 13.9142 13.4821 13.8857 13.3161 14.016ZM8.14286 10.7142C7.7875 10.7142 7.5 11.0017 7.5 11.3571C7.5 11.6267 7.66786 11.8589 7.90357 11.9535C8.10893 11.6303 8.3875 11.3374 8.72321 11.0821C8.62143 10.8642 8.39821 10.7142 8.14286 10.7142Z" fill="black" fill-opacity="0.5"/>
<path d="M9.42871 12.6429C9.42871 12.8134 9.49644 12.9769 9.617 13.0974C9.73756 13.218 9.90107 13.2857 10.0716 13.2857C10.2421 13.2857 10.4056 13.218 10.5261 13.0974C10.6467 12.9769 10.7144 12.8134 10.7144 12.6429C10.7144 12.4724 10.6467 12.3088 10.5261 12.1883C10.4056 12.0677 10.2421 12 10.0716 12C9.90107 12 9.73756 12.0677 9.617 12.1883C9.49644 12.3088 9.42871 12.4724 9.42871 12.6429Z" fill="black" fill-opacity="0.5"/>
</svg>
