<svg width="24" height="24" viewBox="0 0 24 24" fill="none" xmlns="http://www.w3.org/2000/svg">
<path d="M20 7.54405C19.4116 7.79786 18.7713 7.98053 18.1118 8.05168C18.7925 7.64596 19.3097 7.00565 19.5539 6.2442C18.9251 6.61916 18.2137 6.89412 17.4734 7.03641C16.8735 6.39611 16.0216 6 15.0775 6C13.2604 6 11.7991 7.4729 11.7991 9.28038C11.7991 9.53419 11.8298 9.78801 11.8798 10.0322C9.159 9.88992 6.73236 8.59007 5.1191 6.59993C4.83452 7.08833 4.673 7.64596 4.673 8.2555C4.673 9.39382 5.25177 10.3975 6.13436 10.9879C5.59596 10.9667 5.08833 10.8148 4.65184 10.5706V10.611C4.65184 12.205 5.77863 13.526 7.28038 13.8298C7.00541 13.901 6.71121 13.9414 6.41702 13.9414C6.20358 13.9414 6.00168 13.9202 5.79786 13.8914C6.2132 15.1912 7.42267 16.1353 8.86288 16.1661C7.73609 17.0487 6.32472 17.5678 4.79221 17.5678C4.51725 17.5678 4.26343 17.5582 4 17.5275C5.45367 18.46 7.17846 18.9984 9.03593 18.9984C15.066 18.9984 18.3656 14.0029 18.3656 9.66687C18.3656 9.52458 18.3656 9.38229 18.356 9.24C18.9944 8.77274 19.5539 8.19397 20 7.54405Z" fill="#808080"/>
</svg>
